<svg xmlns="http://www.w3.org/2000/svg" version="1.1" xmlns:xlink="http://www.w3.org/1999/xlink" xmlns:svgjs="http://svgjs.dev/svgjs" width="1500" height="1500" viewBox="0 0 1500 1500"><rect width="1500" height="1500" fill="#ffffff"></rect><g transform="matrix(0.6666666666666666,0,0,0.6666666666666666,249.39393939393938,535.6622699648976)"><svg viewBox="0 0 396 170" data-background-color="#ffffff" preserveAspectRatio="xMidYMid meet" height="643" width="1500" xmlns="http://www.w3.org/2000/svg" xmlns:xlink="http://www.w3.org/1999/xlink"><g id="tight-bounds" transform="matrix(1,0,0,1,0.2400000000000091,0.0017436375600539122)"><svg viewBox="0 0 395.52 169.9965127248799" height="169.9965127248799" width="395.52"><g><svg viewBox="0 0 395.52 169.9965127248799" height="169.9965127248799" width="395.52"><g><svg viewBox="0 0 395.52 169.9965127248799" height="169.9965127248799" width="395.52"><g id="textblocktransform"><svg viewBox="0 0 395.52 169.9965127248799" height="169.9965127248799" width="395.52" id="textblock"><g><svg viewBox="0 0 395.52 129.53878686964163" height="129.53878686964163" width="395.52"><rect width="395.52" height="129.53878686964163" x="0" y="0" opacity="1" fill="#0b5ed7" data-fill-palette-color="tertiary"></rect><g transform="matrix(1,0,0,1,23.461705032,23.461705032)"><svg width="348.596589936" viewBox="4.38 -32.29 180.19 42.71" height="82.61537680564163" data-palette-color="#ffffff"><path d="M14.62 0L4.38 0 4.38-31.25 14.62-31.25Q18.85-31.25 22-29.86 25.14-28.47 27.19-26.18 29.24-23.89 30.24-21.13 31.25-18.37 31.25-15.63L31.25-15.63Q31.25-12.88 30.24-10.12 29.24-7.36 27.19-5.07 25.14-2.78 22-1.39 18.85 0 14.62 0L14.62 0ZM8.33-27.71L8.33-3.54 14.2-3.54Q17.81-3.54 20.28-4.67 22.74-5.8 24.27-7.62 25.8-9.44 26.48-11.56 27.15-13.68 27.15-15.63L27.15-15.63Q27.15-17.57 26.48-19.69 25.8-21.81 24.27-23.63 22.74-25.45 20.28-26.58 17.81-27.71 14.2-27.71L14.2-27.71 8.33-27.71ZM40.41 0L36.66 0 36.66-20.83 40.14-20.83 40.14-17.01Q41.25-18.85 43.09-19.95 44.93-21.04 47.46-21.04L47.46-21.04 48.4-17.29Q47.74-17.5 46.87-17.5L46.87-17.5Q43.96-17.5 42.19-15.64 40.41-13.78 40.41-10.35L40.41-10.35 40.41 0ZM56.04 0L52.29 0 52.29-20.83 56.04-20.83 56.04 0ZM54.16-24.58L54.16-24.58Q53.12-24.58 52.39-25.31 51.66-26.04 51.66-27.08L51.66-27.08Q51.66-28.16 52.39-28.87 53.12-29.58 54.16-29.58L54.16-29.58Q55.24-29.58 55.95-28.87 56.66-28.16 56.66-27.08L56.66-27.08Q56.66-26.04 55.95-25.31 55.24-24.58 54.16-24.58ZM80.83-20.83L70.31 1.04 59.78-20.83 64.06-20.83 68.29-11.81Q68.88-10.59 69.4-9.41 69.92-8.23 70.41-6.53L70.41-6.53Q70.93-8.23 71.47-9.43 72.01-10.63 72.56-11.81L72.56-11.81 76.83-20.83 80.83-20.83ZM94.5 0.42L94.5 0.42Q91.24 0.42 88.65-1.04 86.07-2.5 84.59-5.02 83.12-7.53 83.12-10.63L83.12-10.63Q83.12-13.58 84.54-15.99 85.96-18.4 88.38-19.83 90.79-21.25 93.71-21.25L93.71-21.25Q96.59-21.25 98.98-19.88 101.38-18.51 102.8-16.18 104.23-13.85 104.23-10.9L104.23-10.9 104.23-9.38 90.62-9.38Q89.71-9.38 88.77-9.44 87.84-9.51 86.93-9.65L86.93-9.65Q87.32-6.88 89.45-5 91.59-3.13 94.54-3.13L94.54-3.13Q96.52-3.13 98.22-4.03 99.92-4.93 100.96-6.42L100.96-6.42 102-2.15Q100.51-0.94 98.58-0.26 96.66 0.42 94.5 0.42ZM86.83-12.19L86.83-12.19Q88.71-12.5 90.62-12.5L90.62-12.5 97.52-12.5Q98.29-12.5 99.04-12.45 99.78-12.4 100.55-12.33L100.55-12.33Q100.06-14.76 98.12-16.34 96.17-17.92 93.71-17.92L93.71-17.92Q91.17-17.92 89.26-16.23 87.35-14.55 86.83-12.19ZM110.51 0L106.52 0 119.74-32.29 119.81-32.29 133.04 0 128.84 0 125.16-9.27 114.22-9.27 110.51 0ZM118.01-18.75L115.54-12.57 123.84-12.57 121.38-18.75Q120.93-19.93 120.51-21.08 120.09-22.22 119.68-23.82L119.68-23.82Q119.26-22.22 118.88-21.09 118.49-19.97 118.01-18.75L118.01-18.75ZM140.75 10.42L137 10.42 137-20.83 140.47-20.83 140.47-18.09Q141.89-19.51 143.77-20.31 145.64-21.11 147.8-21.11L147.8-21.11Q150.68-21.11 153.02-19.67 155.37-18.23 156.77-15.8 158.18-13.37 158.18-10.42L158.18-10.42Q158.18-7.47 156.77-5.03 155.37-2.6 153.02-1.16 150.68 0.28 147.8 0.28L147.8 0.28Q145.75 0.28 143.94-0.45 142.14-1.18 140.75-2.47L140.75-2.47 140.75 10.42ZM147.31-3.13L147.31-3.13Q149.29-3.13 150.91-4.11 152.52-5.1 153.47-6.75 154.43-8.4 154.43-10.42L154.43-10.42Q154.43-12.43 153.47-14.08 152.52-15.73 150.91-16.72 149.29-17.71 147.31-17.71L147.31-17.71Q145.33-17.71 143.72-16.72 142.1-15.73 141.15-14.08 140.19-12.43 140.19-10.42L140.19-10.42Q140.19-8.4 141.15-6.75 142.1-5.1 143.72-4.11 145.33-3.13 147.31-3.13ZM167.14 10.42L163.39 10.42 163.39-20.83 166.86-20.83 166.86-18.09Q168.28-19.51 170.16-20.31 172.03-21.11 174.18-21.11L174.18-21.11Q177.07-21.11 179.41-19.67 181.75-18.23 183.16-15.8 184.57-13.37 184.57-10.42L184.57-10.42Q184.57-7.47 183.16-5.03 181.75-2.6 179.41-1.16 177.07 0.28 174.18 0.28L174.18 0.28Q172.14 0.28 170.33-0.45 168.52-1.18 167.14-2.47L167.14-2.47 167.14 10.42ZM173.7-3.13L173.7-3.13Q175.68-3.13 177.29-4.11 178.91-5.1 179.86-6.75 180.82-8.4 180.82-10.42L180.82-10.42Q180.82-12.43 179.86-14.08 178.91-15.73 177.29-16.72 175.68-17.71 173.7-17.71L173.7-17.71Q171.72-17.71 170.1-16.72 168.49-15.73 167.53-14.08 166.58-12.43 166.58-10.42L166.58-10.42Q166.58-8.4 167.53-6.75 168.49-5.1 170.1-4.11 171.72-3.13 173.7-3.13Z" opacity="1" transform="matrix(1,0,0,1,0,0)" fill="#ffffff" class="wordmark-text-0" data-fill-palette-color="quaternary" id="text-0"></path></svg></g></svg></g><g transform="matrix(1,0,0,1,0,141.26963938564163)"><svg viewBox="0 0 395.52 28.726873339238264" height="28.726873339238264" width="395.52"><g transform="matrix(1,0,0,1,0,0)"><svg width="395.52" viewBox="4.5 -37.6 677.33 49.2" height="28.726873339238264" data-palette-color="#0b5ed7"><path d="M9.25 0L4.5 0 4.5-35 25.25-35 25.25-30.9 9.25-30.9 9.25-20.2 22.6-20.2 22.6-16.3 9.25-16.3 9.25 0ZM35.25 0L30.75 0 30.75-26 35.1-26 35.1-20.35Q35.75-22 36.85-23.43 37.95-24.85 39.6-25.73 41.25-26.6 43.45-26.6L43.45-26.6Q44.2-26.6 44.95-26.53 45.7-26.45 46.2-26.3L46.2-26.3 44.85-21.65Q43.9-22.05 42.6-22.05L42.6-22.05Q40.75-22.05 39.07-21 37.4-19.95 36.32-17.75 35.25-15.55 35.25-12.15L35.25-12.15 35.25 0ZM59.6 0.6L59.6 0.6Q54 0.6 50.72-2.98 47.45-6.55 47.45-13L47.45-13Q47.45-16.9 48.92-19.98 50.4-23.05 53.05-24.83 55.7-26.6 59.2-26.6L59.2-26.6Q62.95-26.6 65.42-24.98 67.9-23.35 69.15-20.6 70.4-17.85 70.4-14.55L70.4-14.55Q70.4-12.8 70.25-11.15L70.25-11.15 52.05-11.15Q52.5-7.5 54.6-5.45 56.7-3.4 60.15-3.4L60.15-3.4Q62.4-3.4 64.2-3.88 66-4.35 67.65-5.1L67.65-5.1 68.7-1.25Q66.9-0.45 64.65 0.08 62.4 0.6 59.6 0.6ZM52-14.8L52-14.8 66.25-14.8Q66.25-18.6 64.35-20.65 62.45-22.7 59.1-22.7L59.1-22.7Q56.2-22.7 54.3-20.68 52.4-18.65 52-14.8ZM86.79 0.6L86.79 0.6Q81.19 0.6 77.92-2.98 74.64-6.55 74.64-13L74.64-13Q74.64-16.9 76.12-19.98 77.59-23.05 80.24-24.83 82.89-26.6 86.39-26.6L86.39-26.6Q90.14-26.6 92.62-24.98 95.09-23.35 96.34-20.6 97.59-17.85 97.59-14.55L97.59-14.55Q97.59-12.8 97.44-11.15L97.44-11.15 79.24-11.15Q79.69-7.5 81.79-5.45 83.89-3.4 87.34-3.4L87.34-3.4Q89.59-3.4 91.39-3.88 93.19-4.35 94.84-5.1L94.84-5.1 95.89-1.25Q94.09-0.45 91.84 0.08 89.59 0.6 86.79 0.6ZM79.19-14.8L79.19-14.8 93.44-14.8Q93.44-18.6 91.54-20.65 89.64-22.7 86.29-22.7L86.29-22.7Q83.39-22.7 81.49-20.68 79.59-18.65 79.19-14.8ZM125.59 0.6L125.59 0.6Q122.64 0.6 120.26-0.15 117.89-0.9 116.34-2.1L116.34-2.1 118.24-5.85Q119.54-4.75 121.51-4.03 123.49-3.3 125.74-3.3L125.74-3.3Q128.54-3.3 129.96-4.23 131.39-5.15 131.39-6.6L131.39-6.6Q131.39-7.65 130.86-8.45 130.34-9.25 128.94-10.03 127.54-10.8 124.89-11.7L124.89-11.7Q121.24-12.95 119.41-14.68 117.59-16.4 117.59-19.45L117.59-19.45Q117.59-22.45 120.21-24.53 122.84-26.6 127.49-26.6L127.49-26.6Q129.99-26.6 131.94-26.08 133.89-25.55 135.44-24.75L135.44-24.75 134.19-21.05Q132.84-21.85 131.11-22.35 129.39-22.85 127.29-22.85L127.29-22.85Q124.69-22.85 123.34-21.8 121.99-20.75 121.99-19.5L121.99-19.5Q121.99-18.3 123.04-17.45 124.09-16.6 127.14-15.6L127.14-15.6Q132.09-13.95 134.04-11.95 135.99-9.95 135.99-6.95L135.99-6.95Q135.99-3.45 133.16-1.43 130.34 0.6 125.59 0.6ZM151.09 0.6L151.09 0.6Q147.34 0.6 145.16-1.88 142.99-4.35 142.99-8.95L142.99-8.95 142.99-21.15 138.49-21.15 138.49-25.05 143.09-25.05 144.04-33.25 147.49-33.25 147.49-25.05 154.69-25.05 154.69-21.15 147.49-21.15 147.49-8.6Q147.49-5.7 148.71-4.55 149.94-3.4 151.64-3.4L151.64-3.4Q152.89-3.4 154.01-3.8 155.14-4.2 156.09-4.75L156.09-4.75 157.34-1.15Q156.34-0.55 154.64 0.03 152.94 0.6 151.09 0.6ZM171.78 0.6L171.78 0.6Q168.08 0.6 165.13-1.13 162.18-2.85 160.51-5.93 158.83-9 158.83-13L158.83-13Q158.83-17.2 160.53-20.25 162.23-23.3 165.18-24.95 168.13-26.6 171.78-26.6L171.78-26.6Q175.43-26.6 178.36-24.95 181.28-23.3 183.01-20.28 184.73-17.25 184.73-13.1L184.73-13.1Q184.73-8.95 183.03-5.88 181.33-2.8 178.41-1.1 175.48 0.6 171.78 0.6ZM171.78-3.4L171.78-3.4Q175.73-3.4 177.93-6.08 180.13-8.75 180.13-13L180.13-13Q180.13-15.6 179.03-17.78 177.93-19.95 176.06-21.28 174.18-22.6 171.78-22.6L171.78-22.6Q167.83-22.6 165.63-20 163.43-17.4 163.43-13.1L163.43-13.1Q163.43-10.5 164.53-8.28 165.63-6.05 167.51-4.73 169.38-3.4 171.78-3.4ZM195.23 0L190.73 0 190.73-26 195.08-26 195.08-20.35Q195.73-22 196.83-23.43 197.93-24.85 199.58-25.73 201.23-26.6 203.43-26.6L203.43-26.6Q204.18-26.6 204.93-26.53 205.68-26.45 206.18-26.3L206.18-26.3 204.83-21.65Q203.88-22.05 202.58-22.05L202.58-22.05Q200.73-22.05 199.06-21 197.38-19.95 196.31-17.75 195.23-15.55 195.23-12.15L195.23-12.15 195.23 0ZM219.13 0.6L219.13 0.6Q215.88 0.6 213.23-1.05 210.58-2.7 209-5.73 207.43-8.75 207.43-12.85L207.43-12.85Q207.43-16.75 209-19.85 210.58-22.95 213.35-24.78 216.13-26.6 219.73-26.6L219.73-26.6Q221.98-26.6 223.8-25.83 225.63-25.05 226.98-23.9L226.98-23.9 226.98-26 231.08-26 231.08-6.3Q231.08-4.4 232-3.83 232.93-3.25 234.03-3.25L234.03-3.25 233.08 0.25Q228.28 0.25 227.28-3.65L227.28-3.65Q226.13-2.05 224.15-0.73 222.18 0.6 219.13 0.6ZM220.13-3.4L220.13-3.4Q222.03-3.4 223.73-4.33 225.43-5.25 226.58-6.65L226.58-6.65 226.58-20.6Q225.23-21.55 223.6-22.13 221.98-22.7 220.18-22.7L220.18-22.7Q217.78-22.7 215.95-21.48 214.13-20.25 213.08-18.07 212.03-15.9 212.03-13L212.03-13Q212.03-10.2 213.08-8.03 214.13-5.85 215.98-4.63 217.83-3.4 220.13-3.4ZM249.08 11.6L249.08 11.6Q246.78 11.6 244.6 11.05 242.43 10.5 240.72 9.4L240.72 9.4 242.38 5.5Q243.58 6.45 245.18 7.08 246.78 7.7 249.08 7.7L249.08 7.7Q252.63 7.7 254.65 5.83 256.68 3.95 256.68-0.15L256.68-0.15 256.68-3.35Q255.68-2.15 253.8-1.07 251.93 0 249.33 0L249.33 0Q246.38 0 243.72-1.53 241.08-3.05 239.43-6 237.78-8.95 237.78-13.1L237.78-13.1Q237.78-17 239.4-20.05 241.03-23.1 243.78-24.85 246.53-26.6 249.83-26.6L249.83-26.6Q252.03-26.6 253.83-25.85 255.63-25.1 256.93-24L256.93-24 256.93-26 261.02-26 261.02-0.6Q261.02 3.7 259.52 6.4 258.02 9.1 255.35 10.35 252.68 11.6 249.08 11.6ZM250.33-4L250.33-4Q252.33-4 253.93-4.9 255.53-5.8 256.52-7L256.52-7 256.52-20.6Q255.43-21.4 253.88-22.05 252.33-22.7 250.28-22.7L250.28-22.7Q248.22-22.7 246.43-21.6 244.63-20.5 243.5-18.43 242.38-16.35 242.38-13.35L242.38-13.35Q242.38-10.5 243.5-8.4 244.63-6.3 246.43-5.15 248.22-4 250.33-4ZM279.17 0.6L279.17 0.6Q273.57 0.6 270.3-2.98 267.02-6.55 267.02-13L267.02-13Q267.02-16.9 268.5-19.98 269.97-23.05 272.62-24.83 275.27-26.6 278.77-26.6L278.77-26.6Q282.52-26.6 285-24.98 287.47-23.35 288.72-20.6 289.97-17.85 289.97-14.55L289.97-14.55Q289.97-12.8 289.82-11.15L289.82-11.15 271.62-11.15Q272.07-7.5 274.17-5.45 276.27-3.4 279.72-3.4L279.72-3.4Q281.97-3.4 283.77-3.88 285.57-4.35 287.22-5.1L287.22-5.1 288.27-1.25Q286.47-0.45 284.22 0.08 281.97 0.6 279.17 0.6ZM271.57-14.8L271.57-14.8 285.82-14.8Q285.82-18.6 283.92-20.65 282.02-22.7 278.67-22.7L278.67-22.7Q275.77-22.7 273.87-20.68 271.97-18.65 271.57-14.8ZM295.92 8L295.92 8 293.47 6.6Q295.47 4.05 296.69 1.45 297.92-1.15 298.57-4.5L298.57-4.5 302.97-3.25Q302.47 0.55 300.59 3.4 298.72 6.25 295.92 8ZM330.96 0L326.46 0 326.46-21.15 322.46-21.15 322.46-25.05 326.46-25.05 326.46-28.1Q326.46-32.5 328.91-35.05 331.36-37.6 335.31-37.6L335.31-37.6Q337.36-37.6 338.91-37.13 340.46-36.65 341.86-35.95L341.86-35.95 340.51-32.15Q339.46-32.7 338.26-33.15 337.06-33.6 335.61-33.6L335.61-33.6Q333.51-33.6 332.24-32.27 330.96-30.95 330.96-28.4L330.96-28.4 330.96-25.05 338.66-25.05 338.66-21.15 330.96-21.15 330.96 0ZM352.56 0.6L352.56 0.6Q349.31 0.6 346.66-1.05 344.01-2.7 342.44-5.73 340.86-8.75 340.86-12.85L340.86-12.85Q340.86-16.75 342.44-19.85 344.01-22.95 346.79-24.78 349.56-26.6 353.16-26.6L353.16-26.6Q355.41-26.6 357.24-25.83 359.06-25.05 360.41-23.9L360.41-23.9 360.41-26 364.51-26 364.51-6.3Q364.51-4.4 365.44-3.83 366.36-3.25 367.46-3.25L367.46-3.25 366.51 0.25Q361.71 0.25 360.71-3.65L360.71-3.65Q359.56-2.05 357.59-0.73 355.61 0.6 352.56 0.6ZM353.56-3.4L353.56-3.4Q355.46-3.4 357.16-4.33 358.86-5.25 360.01-6.65L360.01-6.65 360.01-20.6Q358.66-21.55 357.04-22.13 355.41-22.7 353.61-22.7L353.61-22.7Q351.21-22.7 349.39-21.48 347.56-20.25 346.51-18.07 345.46-15.9 345.46-13L345.46-13Q345.46-10.2 346.51-8.03 347.56-5.85 349.41-4.63 351.26-3.4 353.56-3.4ZM380.46 0.6L380.46 0.6Q377.51 0.6 375.13-0.15 372.76-0.9 371.21-2.1L371.21-2.1 373.11-5.85Q374.41-4.75 376.38-4.03 378.36-3.3 380.61-3.3L380.61-3.3Q383.41-3.3 384.83-4.23 386.26-5.15 386.26-6.6L386.26-6.6Q386.26-7.65 385.73-8.45 385.21-9.25 383.81-10.03 382.41-10.8 379.76-11.7L379.76-11.7Q376.11-12.95 374.28-14.68 372.46-16.4 372.46-19.45L372.46-19.45Q372.46-22.45 375.08-24.53 377.71-26.6 382.36-26.6L382.36-26.6Q384.86-26.6 386.81-26.08 388.76-25.55 390.31-24.75L390.31-24.75 389.06-21.05Q387.71-21.85 385.98-22.35 384.26-22.85 382.16-22.85L382.16-22.85Q379.56-22.85 378.21-21.8 376.86-20.75 376.86-19.5L376.86-19.5Q376.86-18.3 377.91-17.45 378.96-16.6 382.01-15.6L382.01-15.6Q386.96-13.95 388.91-11.95 390.86-9.95 390.86-6.95L390.86-6.95Q390.86-3.45 388.03-1.43 385.21 0.6 380.46 0.6ZM405.96 0.6L405.96 0.6Q402.21 0.6 400.03-1.88 397.86-4.35 397.86-8.95L397.86-8.95 397.86-21.15 393.36-21.15 393.36-25.05 397.96-25.05 398.91-33.25 402.36-33.25 402.36-25.05 409.56-25.05 409.56-21.15 402.36-21.15 402.36-8.6Q402.36-5.7 403.58-4.55 404.81-3.4 406.51-3.4L406.51-3.4Q407.76-3.4 408.88-3.8 410.01-4.2 410.96-4.75L410.96-4.75 412.21-1.15Q411.21-0.55 409.51 0.03 407.81 0.6 405.96 0.6ZM441.65 0.6L441.65 0.6Q438.4 0.6 435.75-1.05 433.1-2.7 431.53-5.73 429.95-8.75 429.95-12.85L429.95-12.85Q429.95-16.75 431.53-19.85 433.1-22.95 435.88-24.78 438.65-26.6 442.25-26.6L442.25-26.6Q444.5-26.6 446.33-25.83 448.15-25.05 449.5-23.9L449.5-23.9 449.5-26 453.6-26 453.6-6.3Q453.6-4.4 454.53-3.83 455.45-3.25 456.55-3.25L456.55-3.25 455.6 0.25Q450.8 0.25 449.8-3.65L449.8-3.65Q448.65-2.05 446.68-0.73 444.7 0.6 441.65 0.6ZM442.65-3.4L442.65-3.4Q444.55-3.4 446.25-4.33 447.95-5.25 449.1-6.65L449.1-6.65 449.1-20.6Q447.75-21.55 446.13-22.13 444.5-22.7 442.7-22.7L442.7-22.7Q440.3-22.7 438.48-21.48 436.65-20.25 435.6-18.07 434.55-15.9 434.55-13L434.55-13Q434.55-10.2 435.6-8.03 436.65-5.85 438.5-4.63 440.35-3.4 442.65-3.4ZM467.05 0L462.55 0 462.55-26 466.9-26 466.9-21.65Q468.3-23.75 470.48-25.18 472.65-26.6 475.65-26.6L475.65-26.6Q480.05-26.6 482.23-23.95 484.4-21.3 484.4-16.95L484.4-16.95 484.4 0 479.9 0 479.9-16.45Q479.9-19.25 478.57-20.95 477.25-22.65 474.9-22.65L474.9-22.65Q472.6-22.65 470.55-21.03 468.5-19.4 467.05-17.2L467.05-17.2 467.05 0ZM502 0.6L502 0.6Q498.8 0.6 496.15-1.05 493.5-2.7 491.95-5.73 490.4-8.75 490.4-12.85L490.4-12.85Q490.4-16.8 491.97-19.9 493.55-23 496.17-24.8 498.8-26.6 501.95-26.6L501.95-26.6Q504.55-26.6 506.42-25.55 508.3-24.5 509.35-23.4L509.35-23.4 509.35-37 513.85-37 513.85-6.3Q513.85-4.4 514.77-3.83 515.7-3.25 516.8-3.25L516.8-3.25 515.85 0.25Q511.1 0.25 510.05-3.55L510.05-3.55Q508.95-2 506.97-0.7 505 0.6 502 0.6ZM503-3.4L503-3.4Q504.85-3.4 506.52-4.28 508.2-5.15 509.35-6.55L509.35-6.55 509.35-19.45Q508.4-20.65 506.7-21.68 505-22.7 502.95-22.7L502.95-22.7Q500.55-22.7 498.75-21.4 496.95-20.1 495.97-17.93 495-15.75 495-13L495-13Q495-10.25 496.05-8.08 497.1-5.9 498.92-4.65 500.75-3.4 503-3.4ZM544.79 0.6L544.79 0.6Q541.84 0.6 539.47-0.15 537.09-0.9 535.54-2.1L535.54-2.1 537.44-5.85Q538.74-4.75 540.72-4.03 542.69-3.3 544.94-3.3L544.94-3.3Q547.74-3.3 549.17-4.23 550.59-5.15 550.59-6.6L550.59-6.6Q550.59-7.65 550.07-8.45 549.54-9.25 548.14-10.03 546.74-10.8 544.09-11.7L544.09-11.7Q540.44-12.95 538.62-14.68 536.79-16.4 536.79-19.45L536.79-19.45Q536.79-22.45 539.42-24.53 542.04-26.6 546.69-26.6L546.69-26.6Q549.19-26.6 551.14-26.08 553.09-25.55 554.64-24.75L554.64-24.75 553.39-21.05Q552.04-21.85 550.32-22.35 548.59-22.85 546.49-22.85L546.49-22.85Q543.89-22.85 542.54-21.8 541.19-20.75 541.19-19.5L541.19-19.5Q541.19-18.3 542.24-17.45 543.29-16.6 546.34-15.6L546.34-15.6Q551.29-13.95 553.24-11.95 555.19-9.95 555.19-6.95L555.19-6.95Q555.19-3.45 552.37-1.43 549.54 0.6 544.79 0.6ZM571.59 0.6L571.59 0.6Q565.99 0.6 562.71-2.98 559.44-6.55 559.44-13L559.44-13Q559.44-16.9 560.91-19.98 562.39-23.05 565.04-24.83 567.69-26.6 571.19-26.6L571.19-26.6Q574.94-26.6 577.41-24.98 579.89-23.35 581.14-20.6 582.39-17.85 582.39-14.55L582.39-14.55Q582.39-12.8 582.24-11.15L582.24-11.15 564.04-11.15Q564.49-7.5 566.59-5.45 568.69-3.4 572.14-3.4L572.14-3.4Q574.39-3.4 576.19-3.88 577.99-4.35 579.64-5.1L579.64-5.1 580.69-1.25Q578.89-0.45 576.64 0.08 574.39 0.6 571.59 0.6ZM563.99-14.8L563.99-14.8 578.24-14.8Q578.24-18.6 576.34-20.65 574.44-22.7 571.09-22.7L571.09-22.7Q568.19-22.7 566.29-20.68 564.39-18.65 563.99-14.8ZM598.89 0.6L598.89 0.6Q595.19 0.6 592.41-1.13 589.64-2.85 588.14-5.93 586.64-9 586.64-13L586.64-13Q586.64-16.75 588.16-19.85 589.69-22.95 592.54-24.78 595.39-26.6 599.24-26.6L599.24-26.6Q601.44-26.6 603.11-26.2 604.79-25.8 606.34-25.05L606.34-25.05 604.99-21.25Q603.59-21.95 602.31-22.28 601.04-22.6 599.49-22.6L599.49-22.6Q595.99-22.6 593.61-20.08 591.24-17.55 591.24-13.1L591.24-13.1Q591.24-10.4 592.24-8.2 593.24-6 595.01-4.7 596.79-3.4 599.19-3.4L599.19-3.4Q601.09-3.4 602.44-3.83 603.79-4.25 605.34-5.05L605.34-5.05 606.74-1.25Q605.19-0.4 603.26 0.1 601.34 0.6 598.89 0.6ZM620.48 0.6L620.48 0.6Q618.23 0.6 616.23-0.35 614.23-1.3 612.98-3.43 611.73-5.55 611.73-9.1L611.73-9.1 611.73-26 616.23-26 616.23-9.7Q616.23-6.65 617.53-5.03 618.83-3.4 621.33-3.4L621.33-3.4Q623.38-3.4 625.31-4.23 627.23-5.05 628.73-6.45L628.73-6.45 628.73-26 633.23-26 633.23-6.75Q633.23-4.6 634.16-3.93 635.08-3.25 636.18-3.25L636.18-3.25 635.23 0.25Q630.58 0.25 629.48-3.45L629.48-3.45Q627.73-1.65 625.43-0.53 623.13 0.6 620.48 0.6ZM646.68 0L642.18 0 642.18-26 646.53-26 646.53-20.35Q647.18-22 648.28-23.43 649.38-24.85 651.03-25.73 652.68-26.6 654.88-26.6L654.88-26.6Q655.63-26.6 656.38-26.53 657.13-26.45 657.63-26.3L657.63-26.3 656.28-21.65Q655.33-22.05 654.03-22.05L654.03-22.05Q652.18-22.05 650.51-21 648.83-19.95 647.76-17.75 646.68-15.55 646.68-12.15L646.68-12.15 646.68 0ZM671.03 0.6L671.03 0.6Q665.43 0.6 662.15-2.98 658.88-6.55 658.88-13L658.88-13Q658.88-16.9 660.35-19.98 661.83-23.05 664.48-24.83 667.13-26.6 670.63-26.6L670.63-26.6Q674.38-26.6 676.85-24.98 679.33-23.35 680.58-20.6 681.83-17.85 681.83-14.55L681.83-14.55Q681.83-12.8 681.68-11.15L681.68-11.15 663.48-11.15Q663.93-7.5 666.03-5.45 668.13-3.4 671.58-3.4L671.58-3.4Q673.83-3.4 675.63-3.88 677.43-4.35 679.08-5.1L679.08-5.1 680.13-1.25Q678.33-0.45 676.08 0.08 673.83 0.6 671.03 0.6ZM663.43-14.8L663.43-14.8 677.68-14.8Q677.68-18.6 675.78-20.65 673.88-22.7 670.53-22.7L670.53-22.7Q667.63-22.7 665.73-20.68 663.83-18.65 663.43-14.8Z" opacity="1" transform="matrix(1,0,0,1,0,0)" fill="#0b5ed7" class="slogan-text-1" data-fill-palette-color="secondary" id="text-1"></path></svg></g></svg></g></svg></g></svg></g></svg></g><defs></defs></svg><rect width="395.52" height="169.9965127248799" fill="none" stroke="none" visibility="hidden"></rect></g></svg></g></svg>